<svg width="17" height="19" viewBox="0 0 17 19" fill="none" xmlns="http://www.w3.org/2000/svg">
<path d="M14.2073 4.26035C14.0812 4.19747 13.9583 4.12883 13.8392 4.0542C13.493 3.83388 13.1758 3.57421 12.8942 3.28094C12.1894 2.50433 11.9262 1.71644 11.8293 1.16494H11.8333C11.7523 0.707038 11.7857 0.410889 11.7909 0.410889H8.5808V12.3646C8.5808 12.5252 8.5808 12.6838 8.57382 12.8405C8.57382 12.86 8.57182 12.878 8.57083 12.8991C8.57083 12.9077 8.57083 12.9166 8.56883 12.9257V12.9324C8.50005 13.8034 7.98593 14.5843 7.19742 15.0158C6.7927 15.2375 6.3349 15.3539 5.86912 15.3532C4.37335 15.3532 3.16118 14.1787 3.16118 12.7282C3.16118 11.2777 4.37335 10.1032 5.86912 10.1032C6.15223 10.1029 6.43359 10.1459 6.70273 10.2304L6.70672 7.08264C5.0547 6.87721 3.38847 7.3464 2.11175 8.37716C1.5585 8.8401 1.09322 9.39256 0.737099 10.0096C0.601528 10.2347 0.090394 11.1387 0.0283402 12.606C-0.0105368 13.4388 0.249142 14.3018 0.373 14.6584V14.6659C0.450754 14.8759 0.75255 15.5925 1.24449 16.1966C1.64099 16.6811 2.10951 17.1068 2.6351 17.4599V17.4524L2.64282 17.4599C4.19691 18.4767 5.91996 18.41 5.91996 18.41C6.21827 18.3985 7.21736 18.41 8.35202 17.8921C9.61054 17.318 10.327 16.4627 10.327 16.4627C10.7848 15.9515 11.1487 15.3693 11.4034 14.7403C11.694 14.005 11.7909 13.123 11.7909 12.7704V6.42891C11.8298 6.45147 12.3486 6.7817 12.3486 6.7817C12.3486 6.7817 13.0958 7.24296 14.2618 7.54319C15.0982 7.75702 16.2251 7.8019 16.2251 7.8019V4.73313C15.8304 4.77441 15.0284 4.65441 14.2078 4.26035H14.2073Z" fill="#FE2C55"/>
</svg>
