<svg width="19" height="17" viewBox="0 0 19 17" fill="none" xmlns="http://www.w3.org/2000/svg">
<path d="M14.175 14.5937C14.2378 14.4676 14.3065 14.3448 14.3811 14.2256C14.6014 13.8795 14.8611 13.5622 15.1544 13.2806C15.931 12.5759 16.7189 12.3127 17.2704 12.2157V12.2197C17.7283 12.1387 18.0244 12.1721 18.0244 12.1774V8.96727H6.07069C5.91014 8.96727 5.7515 8.96727 5.59479 8.96029C5.57535 8.96029 5.55735 8.9583 5.53623 8.9573C5.52759 8.9573 5.51871 8.9573 5.50959 8.95531H5.50287C4.63194 8.88653 3.85101 8.3724 3.41951 7.58389C3.19776 7.17917 3.08136 6.72137 3.08208 6.2556C3.08208 4.75983 4.2566 3.54766 5.7071 3.54766C7.15761 3.54766 8.33213 4.75983 8.33213 6.2556C8.33237 6.5387 8.28941 6.82006 8.20493 7.08921L11.3527 7.0932C11.5581 5.44117 11.0889 3.77494 10.0581 2.49823C9.5952 1.94498 9.04274 1.4797 8.42572 1.12357C8.20061 0.988002 7.29657 0.476869 5.82926 0.414815C4.99649 0.375938 4.13348 0.635617 3.77686 0.759475H3.76942C3.55942 0.837229 2.84281 1.13902 2.23875 1.63097C1.75421 2.02747 1.32846 2.49598 0.975437 3.02157H0.982878L0.975437 3.0293C-0.0414047 4.58338 0.0253124 6.30644 0.0253124 6.30644C0.0368309 6.60474 0.0253124 7.60383 0.543213 8.73849C1.11727 9.99701 1.9726 10.7135 1.9726 10.7135C2.48378 11.1713 3.066 11.5352 3.69502 11.7898C4.43035 12.0804 5.31232 12.1774 5.66487 12.1774H12.0064C11.9838 12.2162 11.6536 12.7351 11.6536 12.7351C11.6536 12.7351 11.1923 13.4822 10.8921 14.6483C10.6783 15.4847 10.6334 16.6116 10.6334 16.6116H13.7022C13.6609 16.2168 13.7809 15.4149 14.175 14.5942V14.5937Z" fill="#25F4EE"/>
</svg>
