<svg width="19" height="17" viewBox="0 0 19 17" fill="none" xmlns="http://www.w3.org/2000/svg">
<path d="M3.87387 2.42873C3.811 2.55483 3.74236 2.67769 3.66772 2.79682C3.44741 3.14297 3.18774 3.46022 2.89447 3.74183C2.11786 4.4466 1.32997 4.70977 0.778466 4.80671L0.778466 4.80273C0.320563 4.88372 0.0244141 4.85033 0.0244141 4.84509L0.0244141 8.05519L11.9781 8.05519C12.1387 8.05519 12.2973 8.05519 12.454 8.06217C12.4735 8.06217 12.4915 8.06416 12.5126 8.06516C12.5212 8.06516 12.5301 8.06516 12.5392 8.06715L12.546 8.06715C13.4169 8.13594 14.1978 8.65006 14.6293 9.43857C14.8511 9.84329 14.9675 10.3011 14.9667 10.7669C14.9667 12.2626 13.7922 13.4748 12.3417 13.4748C10.8912 13.4748 9.7167 12.2626 9.7167 10.7669C9.71646 10.4838 9.75942 10.2024 9.84389 9.93325L6.69617 9.92926C6.49074 11.5813 6.95992 13.2475 7.99068 14.5242C8.45363 15.0775 9.00608 15.5428 9.6231 15.8989C9.84821 16.0345 10.7523 16.5456 12.2196 16.6076C13.0523 16.6465 13.9153 16.3868 14.272 16.263L14.2794 16.263C14.4894 16.1852 15.206 15.8834 15.8101 15.3915C16.2946 14.995 16.7204 14.5265 17.0734 14.0009L17.0659 14.0009L17.0734 13.9932C18.0902 12.4391 18.0235 10.716 18.0235 10.716C18.012 10.4177 18.0235 9.41863 17.5056 8.28397C16.9316 7.02545 16.0762 6.30896 16.0762 6.30896C15.565 5.85116 14.9828 5.48731 14.3538 5.23262C13.6185 4.94204 12.7365 4.84509 12.384 4.84509L6.04243 4.84509C6.06499 4.80622 6.39522 4.28736 6.39522 4.28736C6.39522 4.28736 6.85648 3.54022 7.15671 2.37415C7.37055 1.5378 7.41542 0.410863 7.41542 0.410863L4.34666 0.410863C4.38793 0.805614 4.26794 1.60758 3.87387 2.42823L3.87387 2.42873Z" fill="#25F4EE"/>
</svg>
