<svg width="17" height="19" viewBox="0 0 17 19" fill="none" xmlns="http://www.w3.org/2000/svg">
<path d="M2.04226 14.5614C2.16836 14.6243 2.29122 14.6929 2.41034 14.7676C2.7565 14.9879 3.07375 15.2476 3.35536 15.5408C4.06013 16.3174 4.32329 17.1053 4.42024 17.6568H4.41625C4.49724 18.1147 4.46385 18.4109 4.45862 18.4109H7.66872V6.45717C7.66872 6.29661 7.66872 6.13798 7.67569 5.98126C7.67569 5.96182 7.67769 5.94382 7.67868 5.92271C7.67868 5.91407 7.67869 5.90519 7.68068 5.89607V5.88935C7.74946 5.01842 8.26359 4.23749 9.05209 3.80598C9.45681 3.58423 9.91461 3.46783 10.3804 3.46855C11.8762 3.46855 13.0883 4.64307 13.0883 6.09358C13.0883 7.54409 11.8762 8.7186 10.3804 8.7186C10.0973 8.71884 9.81593 8.67588 9.54678 8.59141L9.54279 11.7391C11.1948 11.9446 12.861 11.4754 14.1378 10.4446C14.691 9.98168 15.1563 9.42922 15.5124 8.8122C15.648 8.58709 16.1591 7.68304 16.2212 6.21573C16.26 5.38297 16.0004 4.51996 15.8765 4.16333V4.15589C15.7988 3.9459 15.497 3.22928 15.005 2.62523C14.6085 2.14068 14.14 1.71494 13.6144 1.36191V1.36935L13.6067 1.36191C12.0526 0.34507 10.3296 0.411787 10.3296 0.411787C10.0312 0.423306 9.03215 0.411787 7.89749 0.929688C6.63897 1.50375 5.92249 2.35908 5.92249 2.35908C5.46469 2.87026 5.10084 3.45247 4.84614 4.08149C4.55556 4.81682 4.45862 5.69879 4.45862 6.05134V12.3929C4.41974 12.3703 3.90088 12.0401 3.90088 12.0401C3.90088 12.0401 3.15374 11.5788 1.98768 11.2786C1.15132 11.0648 0.0243874 11.0199 0.0243874 11.0199V14.0886C0.419139 14.0474 1.2211 14.1674 2.04176 14.5614H2.04226Z" fill="#FE2C55"/>
</svg>
